<?xml version="1.0" encoding="utf-8"?>
<!-- Generator: Adobe Illustrator 21.1.0, SVG Export Plug-In . SVG Version: 6.00 Build 0)  -->
<svg version="1.1" id="圖層_1" xmlns="http://www.w3.org/2000/svg" xmlns:xlink="http://www.w3.org/1999/xlink" x="0px" y="0px"
	 viewBox="0 0 30 32" style="enable-background:new 0 0 30 32;" xml:space="preserve">
<style type="text/css">
	.st0{fill:#383D63;}
</style>
<title>calendar</title>
<path class="st0" d="M10,12h4v4h-4V12z M16,12h4v4h-4V12z M22,12h4v4h-4V12z M4,24h4v4H4V24z M10,24h4v4h-4V24z M16,24h4v4h-4V24z
	 M10,18h4v4h-4V18z M16,18h4v4h-4V18z M22,18h4v4h-4V18z M4,18h4v4H4V18z M26,0v2h-4V0H8v2H4V0H0v32h30V0H26z M28,30H2V8h26V30z"/>
</svg>
