<?xml version="1.0" encoding="utf-8"?>
<!-- Generator: Adobe Illustrator 21.1.0, SVG Export Plug-In . SVG Version: 6.00 Build 0)  -->
<svg version="1.1" id="圖層_1" xmlns="http://www.w3.org/2000/svg" xmlns:xlink="http://www.w3.org/1999/xlink" x="0px" y="0px"
	 viewBox="0 0 31.4 31.4" style="enable-background:new 0 0 31.4 31.4;" xml:space="preserve">
<title>price-tags</title>
<path d="M0,1.5l0,12c0,0.8,0.5,2,1.1,2.6l14.9,14.9c0.6,0.6,1.5,0.6,2.1,0l12.9-12.9c0.6-0.6,0.6-1.5,0-2.1L16.1,1.1
	C15.5,0.5,14.3,0,13.5,0l-12,0C0.7,0,0,0.7,0,1.5z M6,9c0-1.7,1.3-3,3-3c1.7,0,3,1.3,3,3s-1.3,3-3,3C7.3,12,6,10.7,6,9z"/>
</svg>
